<svg xmlns="http://www.w3.org/2000/svg" viewBox="0 0 256 256"><defs><style>.cls-1{fill:#3a3a3a;}</style></defs><title>decorative_border32</title><g id="decorative_border32"><path class="cls-1" d="M244.56,131.43c-4.27-.71-8.43-2.73-12.56-4.78a35.64,35.64,0,0,1,5.72-1.25c1.62-.21,2.21-2.43.24-2.18a44,44,0,0,0-8.58,2.14,60,60,0,0,0-5.56-2.45c-6.62-2.46-13.62-.94-20,2-2.22,1-4.34,2-6.43,2.91-1-.36-2.06-.74-3.1-1.14-6.78-2.59-13.37-3.89-20.59-2.3-1.31.28-2.61.64-3.91,1-4-1.75-8-3.35-12-3.8a1.86,1.86,0,0,0-.34,0,1.76,1.76,0,0,0-.41,0c-6.49.19-12.44,3.55-18.53,6.29l-.34.15c-8.13-2.79-16-6.46-24.94-3.81-1.12.33-2.23.7-3.33,1.07a54.86,54.86,0,0,0-8.08-3.12c-5.1-1.41-10.73-.21-15.65,1.73-2.89,1.14-5.67,2.7-8.5,4.06-4.11-1.51-8.12-3.31-12.48-4-5.36-.86-10.5.06-15.63,1.57h0C44.84,123.6,39.91,121,35,121.8c-4.68.8-9.23,3.43-13.42,6.59a63.52,63.52,0,0,1-9-5.07c-1.1-.73-3.61.79-2.22,1.7a63.59,63.59,0,0,0,9,5.07c-.74.61-1.47,1.22-2.18,1.84-1.4,1.21,1.12,3.2,2.22,2.25s2.15-1.84,3.31-2.77a27.73,27.73,0,0,0,5.4,1.29c4.93.65,9.86-1.37,14.49-2.82,2-.62,4-1.3,6-1.93,2.51,1.09,5,2.25,7.51,3.23,5.2,2,10.41,3.29,15.83,2.14a30.66,30.66,0,0,0,6.69-2.42l.62.19c4.92,1.48,10.55,2.39,15.65,1.31,4.73-1,9.35-2.83,13.92-4.46,3.72,1.7,7.4,3.55,11.17,5,6.75,2.65,12.93.5,19.07-2.3a38.52,38.52,0,0,0,11.06,2.19,2.7,2.7,0,0,0,.41,0,1.87,1.87,0,0,0,.34,0c6.12-.51,12.09-3,18-4.89,3.88,1.74,7.73,3.7,11.64,4.83,6.34,1.83,12.2.73,18.12-1.88,5.93,1.86,12.29,2.67,18.34,1,3.83-1.08,7.64-2.69,11.49-4.06,5.36,2.5,10.73,5.57,16.33,6.5C246.77,134.63,246.18,131.7,244.56,131.43ZM33.34,130.36a17.44,17.44,0,0,1-8.32-.67c4.75-3.42,10.14-6.08,15.16-4.8a44,44,0,0,1,5.51,1.85A100.64,100.64,0,0,1,33.34,130.36Zm35.17.49c-5.49.46-10.76-1.78-15.94-4a29.66,29.66,0,0,1,9.1-1c4.5.28,8.59,2,12.73,3.55A21.19,21.19,0,0,1,68.51,130.85Zm29.34-1.45a28.51,28.51,0,0,1-16-.06c1.59-.81,3.18-1.61,4.79-2.3,6-2.59,12-3.31,18.09-.89l1.23.51C103.24,127.62,100.57,128.58,97.85,129.4Zm27.08,2c-2.73-.24-5.27-1.56-7.83-2.72-1.49-.67-3-1.39-4.47-2.1a21.66,21.66,0,0,1,5.46-1.25c4.63-.31,9.2,1.22,13.53,2.69,1.19.41,2.38.84,3.56,1.26C131.85,130.7,128.41,131.76,124.93,131.45Zm25.86-.77a32.78,32.78,0,0,1-8.76-1.39c5.07-2.4,10.17-4.78,15.6-4.83a29.87,29.87,0,0,1,8.32,2.23C161,128.42,156,130.32,150.79,130.68Zm28-1.38c-2-.72-4-1.59-6-2.5,7.67-1.85,13.94,0,20.91,2.4A21.54,21.54,0,0,1,178.8,129.3Zm40.06-.22a29.87,29.87,0,0,1-16.78.16c7.87-3.87,15.36-6.1,23.62-2.67l.12.05C223.49,127.48,221.18,128.36,218.86,129.08Z"/></g></svg>