<?xml version="1.0" encoding="UTF-8"?>
<svg id="Capa_1" xmlns="http://www.w3.org/2000/svg" viewBox="0 0 148.72 117.02">
  <defs>
    <style>
      .cls-1 {
        fill: none;
        stroke: #000;
        stroke-miterlimit: 10;
        stroke-width: 2.07px;
      }
    </style>
  </defs>
  <g>
    <path class="cls-1" d="M83.52,53.91l-5.47,16.32h-11.59l-5.47-16.32s10.65-5.16,11.25-19.5c.01-.41.02-.83.02-1.25,0,.43,0,.86.02,1.28.61,14.32,11.25,19.47,11.25,19.47Z"/>
    <rect class="cls-1" x="63.72" y="70.23" width="17.08" height="7.49"/>
    <line class="cls-1" x1="72.25" y1="33.16" x2="72.25" y2="52.17"/>
    <path class="cls-1" d="M74.88,54.96c0,1.45-1.18,2.63-2.63,2.63s-2.63-1.18-2.63-2.63,1.18-2.63,2.63-2.63,2.63,1.18,2.63,2.63Z"/>
  </g>
  <path class="cls-1" d="M93.46,32.93s-3.54-5.13-9.65,0c-6.11,5.13-11.6,1.47-11.6,1.47"/>
</svg>