<?xml version="1.0" encoding="UTF-8"?>
<svg id="Capa_1" xmlns="http://www.w3.org/2000/svg" viewBox="0 0 148.72 117.02">
  <defs>
    <style>
      .cls-1 {
        fill: none;
        stroke: #000;
        stroke-linecap: round;
        stroke-linejoin: round;
        stroke-width: 2.07px;
      }
    </style>
  </defs>
  <g>
    <path class="cls-1" d="M77.68,45.77l.71,20.64h-7.01l.71-20.64c-.89-.77-1.45-1.91-1.45-3.19,0-2.35,1.9-4.24,4.24-4.24s4.24,1.9,4.24,4.24c0,1.27-.56,2.41-1.45,3.19Z"/>
    <path class="cls-1" d="M80.09,79.61c0,2.88-2.33,5.21-5.21,5.21s-5.21-2.33-5.21-5.21c0-1.93,1.05-5.38,2.62-7.43h5.19c1.56,2.05,2.61,5.5,2.61,7.43Z"/>
    <rect class="cls-1" x="67.73" y="66.4" width="14.31" height="5.78"/>
  </g>
  <polygon class="cls-1" points="84.98 50.28 96.04 75.58 107.86 51.05 96.8 62.1 84.98 50.28"/>
</svg>